<?xml version="1.0" encoding="UTF-8"?>
<svg xmlns="http://www.w3.org/2000/svg" xmlns:xlink="http://www.w3.org/1999/xlink" width="239.71pt" height="94.21pt" viewBox="0 0 239.71 94.21" version="1.1">
<defs>
<clipPath id="clip1">
  <path d="M 198 24 L 239.710938 24 L 239.710938 71 L 198 71 Z M 198 24 "/>
</clipPath>
<clipPath id="clip2">
  <path d="M 72 85 L 81 85 L 81 94.210938 L 72 94.210938 Z M 72 85 "/>
</clipPath>
</defs>
<g id="surface1">
<path style=" stroke:none;fill-rule:nonzero;fill:rgb(3.898621%,37.599182%,66.699219%);fill-opacity:1;" d="M 182.453125 69.964844 L 156.046875 69.964844 C 155.21875 69.964844 154.546875 69.292969 154.546875 68.464844 C 154.546875 67.636719 155.21875 66.964844 156.046875 66.964844 L 182.308594 66.964844 C 183.308594 66.753906 190.25 65 190.558594 56.859375 C 190.867188 48.785156 186.238281 47.976563 185.488281 47.898438 C 185.488281 47.898438 168.558594 47.898438 168.535156 47.898438 C 161.738281 46.765625 160.316406 40.652344 160.511719 37.402344 C 160.476563 28.957031 167.605469 25.171875 171.390625 24.355469 C 171.492188 24.332031 171.601563 24.320313 171.707031 24.320313 L 195.488281 24.320313 C 196.316406 24.320313 196.988281 24.992188 196.988281 25.820313 C 196.988281 26.648438 196.316406 27.320313 195.488281 27.320313 L 171.886719 27.320313 C 170.734375 27.613281 163.449219 29.773438 163.511719 37.4375 C 163.511719 37.472656 163.511719 37.507813 163.511719 37.546875 C 163.492188 37.8125 163.183594 43.855469 168.898438 44.902344 C 168.898438 44.902344 185.644531 44.898438 185.632813 44.902344 C 185.714844 44.90625 193.992188 45.53125 193.558594 56.972656 C 193.222656 65.820313 186.3125 69.324219 182.707031 69.941406 C 182.625 69.957031 182.539063 69.964844 182.453125 69.964844 "/>
<g clip-path="url(#clip1)" clip-rule="nonzero">
<path style=" stroke:none;fill-rule:nonzero;fill:rgb(3.898621%,37.599182%,66.699219%);fill-opacity:1;" d="M 205.445313 35.707031 C 205.277344 36.476563 204.277344 41.078125 203.289063 46.308594 L 235.371094 46.039063 C 235.792969 43.425781 236.714844 37.25 236.714844 33.417969 C 236.714844 29.910156 232.5 28.257813 231.5625 27.933594 L 214.269531 27.933594 C 208.730469 27.933594 205.789063 34.847656 205.445313 35.707031 M 232.226563 70.121094 L 207.855469 70.121094 C 207.800781 70.121094 207.75 70.117188 207.695313 70.113281 C 204.480469 69.769531 198.367188 67.53125 198.230469 61.53125 C 198.089844 55.148438 202.359375 35.769531 202.542969 34.945313 C 202.558594 34.878906 202.578125 34.8125 202.601563 34.75 C 202.75 34.347656 206.335938 24.933594 214.269531 24.933594 L 231.800781 24.933594 C 231.941406 24.933594 232.082031 24.953125 232.214844 24.992188 C 232.523438 25.082031 239.714844 27.230469 239.714844 33.417969 C 239.714844 38.617188 238.1875 47.414063 238.125 47.785156 C 238 48.5 237.382813 49.023438 236.660156 49.027344 L 202.738281 49.3125 C 201.882813 54.132813 201.175781 58.96875 201.230469 61.460938 C 201.339844 66.109375 207.183594 67.023438 207.945313 67.121094 L 232.226563 67.121094 C 233.054688 67.121094 233.726563 67.792969 233.726563 68.621094 C 233.726563 69.449219 233.054688 70.121094 232.226563 70.121094 "/>
</g>
<path style=" stroke:none;fill-rule:nonzero;fill:rgb(3.898621%,37.599182%,66.699219%);fill-opacity:1;" d="M 116.894531 60.429688 C 119.945313 66.242188 124.65625 67.109375 125.351563 67.207031 L 140.445313 66.777344 C 145.691406 65.089844 147.597656 59.578125 147.816406 58.898438 L 151.96875 33.550781 C 152.402344 30.726563 148.070313 27.703125 146.292969 27.714844 C 145.195313 27.71875 141.679688 27.734375 138.167969 27.738281 C 136.046875 27.742188 133.921875 27.742188 132.335938 27.742188 C 131.246094 27.738281 130.460938 27.738281 129.882813 27.703125 C 127.34375 28.136719 122.820313 32.175781 121.421875 35.933594 C 121.15625 37.113281 119.117188 48.234375 116.894531 60.429688 M 110.3125 89.804688 C 110.222656 89.804688 110.132813 89.796875 110.042969 89.78125 C 109.226563 89.632813 108.6875 88.851563 108.832031 88.039063 C 108.832031 88.039063 111.222656 74.828125 113.628906 61.617188 C 114.832031 55.011719 116.039063 48.40625 116.953125 43.449219 C 117.410156 40.96875 117.792969 38.902344 118.070313 37.453125 C 118.296875 36.257813 118.445313 35.472656 118.613281 34.957031 L 118.585938 34.949219 C 120.28125 30.316406 125.558594 25.351563 129.449219 24.734375 C 129.585938 24.710938 129.722656 24.710938 129.855469 24.726563 C 130.847656 24.757813 140.355469 24.738281 146.632813 24.714844 C 146.632813 24.714844 146.636719 24.714844 146.636719 24.714844 C 148.09375 24.683594 155.867188 27.625 154.960938 33.78125 C 154.953125 33.835938 154.953125 33.890625 154.945313 33.945313 L 150.761719 59.484375 C 150.75 59.539063 150.738281 59.59375 150.722656 59.648438 C 150.632813 59.96875 148.433594 67.511719 141.121094 69.703125 C 140.996094 69.742188 140.867188 69.765625 140.734375 69.765625 L 125.324219 70.207031 C 125.261719 70.210938 125.199219 70.207031 125.140625 70.203125 C 124.898438 70.179688 120.027344 69.660156 116.113281 64.722656 C 114.453125 73.839844 112.796875 82.988281 111.785156 88.570313 C 111.652344 89.296875 111.023438 89.804688 110.3125 89.804688 "/>
<path style=" stroke:none;fill-rule:nonzero;fill:rgb(98.799133%,71.398926%,8.999634%);fill-opacity:1;" d="M 90.046875 18.390625 C 90.046875 20.703125 88.175781 22.578125 85.863281 22.578125 C 83.554688 22.578125 81.679688 20.703125 81.679688 18.390625 C 81.679688 16.082031 83.554688 14.207031 85.863281 14.207031 C 88.175781 14.207031 90.046875 16.082031 90.046875 18.390625 "/>
<path style=" stroke:none;fill-rule:nonzero;fill:rgb(98.799133%,71.398926%,8.999634%);fill-opacity:1;" d="M 80.574219 4.179688 C 80.574219 6.492188 78.699219 8.367188 76.386719 8.367188 C 74.078125 8.367188 72.203125 6.492188 72.203125 4.179688 C 72.203125 1.871094 74.078125 -0.00390625 76.386719 -0.00390625 C 78.699219 -0.00390625 80.574219 1.871094 80.574219 4.179688 "/>
<path style=" stroke:none;fill-rule:nonzero;fill:rgb(98.799133%,71.398926%,8.999634%);fill-opacity:1;" d="M 71.054688 18.390625 C 71.054688 20.703125 69.183594 22.578125 66.871094 22.578125 C 64.558594 22.578125 62.6875 20.703125 62.6875 18.390625 C 62.6875 16.082031 64.558594 14.207031 66.871094 14.207031 C 69.183594 14.207031 71.054688 16.082031 71.054688 18.390625 "/>
<path style=" stroke:none;fill-rule:nonzero;fill:rgb(98.799133%,71.398926%,8.999634%);fill-opacity:1;" d="M 89.566406 75.378906 C 89.566406 77.6875 87.691406 79.5625 85.382813 79.5625 C 83.070313 79.5625 81.195313 77.6875 81.195313 75.378906 C 81.195313 73.066406 83.070313 71.191406 85.382813 71.191406 C 87.691406 71.191406 89.566406 73.066406 89.566406 75.378906 "/>
<path style=" stroke:none;fill-rule:nonzero;fill:rgb(98.799133%,71.398926%,8.999634%);fill-opacity:1;" d="M 80.550781 62.019531 C 80.550781 64.328125 78.679688 66.203125 76.367188 66.203125 C 74.054688 66.203125 72.183594 64.328125 72.183594 62.019531 C 72.183594 59.707031 74.054688 57.832031 76.367188 57.832031 C 78.679688 57.832031 80.550781 59.707031 80.550781 62.019531 "/>
<path style=" stroke:none;fill-rule:nonzero;fill:rgb(98.799133%,71.398926%,8.999634%);fill-opacity:1;" d="M 61.363281 62.019531 C 61.363281 63.929688 59.816406 65.480469 57.90625 65.480469 C 55.992188 65.480469 54.445313 63.929688 54.445313 62.019531 C 54.445313 60.105469 55.992188 58.558594 57.90625 58.558594 C 59.816406 58.558594 61.363281 60.105469 61.363281 62.019531 "/>
<path style=" stroke:none;fill-rule:nonzero;fill:rgb(98.799133%,71.398926%,8.999634%);fill-opacity:1;" d="M 70.597656 75.378906 C 70.597656 77.289063 69.050781 78.839844 67.136719 78.839844 C 65.226563 78.839844 63.675781 77.289063 63.675781 75.378906 C 63.675781 73.46875 65.226563 71.917969 67.136719 71.917969 C 69.050781 71.917969 70.597656 73.46875 70.597656 75.378906 "/>
<path style=" stroke:none;fill-rule:nonzero;fill:rgb(98.799133%,71.398926%,8.999634%);fill-opacity:1;" d="M 61.121094 90.023438 C 61.121094 91.9375 59.574219 93.484375 57.660156 93.484375 C 55.75 93.484375 54.199219 91.9375 54.199219 90.023438 C 54.199219 88.113281 55.75 86.5625 57.660156 86.5625 C 59.574219 86.5625 61.121094 88.113281 61.121094 90.023438 "/>
<path style=" stroke:none;fill-rule:nonzero;fill:rgb(98.799133%,71.398926%,8.999634%);fill-opacity:1;" d="M 51.386719 75.378906 C 51.386719 76.859375 50.183594 78.058594 48.703125 78.058594 C 47.222656 78.058594 46.023438 76.859375 46.023438 75.378906 C 46.023438 73.898438 47.222656 72.695313 48.703125 72.695313 C 50.183594 72.695313 51.386719 73.898438 51.386719 75.378906 "/>
<path style=" stroke:none;fill-rule:nonzero;fill:rgb(98.799133%,71.398926%,8.999634%);fill-opacity:1;" d="M 18.410156 47.335938 C 18.410156 48.816406 17.210938 50.019531 15.730469 50.019531 C 14.25 50.019531 13.046875 48.816406 13.046875 47.335938 C 13.046875 45.855469 14.25 44.65625 15.730469 44.65625 C 17.210938 44.65625 18.410156 45.855469 18.410156 47.335938 "/>
<path style=" stroke:none;fill-rule:nonzero;fill:rgb(98.799133%,71.398926%,8.999634%);fill-opacity:1;" d="M 23.214844 33.046875 C 23.214844 34.527344 22.015625 35.726563 20.53125 35.726563 C 19.050781 35.726563 17.851563 34.527344 17.851563 33.046875 C 17.851563 31.566406 19.050781 30.363281 20.53125 30.363281 C 22.015625 30.363281 23.214844 31.566406 23.214844 33.046875 "/>
<path style=" stroke:none;fill-rule:nonzero;fill:rgb(98.799133%,71.398926%,8.999634%);fill-opacity:1;" d="M 32.300781 18.390625 C 32.300781 19.875 31.101563 21.074219 29.621094 21.074219 C 28.140625 21.074219 26.941406 19.875 26.941406 18.390625 C 26.941406 16.910156 28.140625 15.710938 29.621094 15.710938 C 31.101563 15.710938 32.300781 16.910156 32.300781 18.390625 "/>
<path style=" stroke:none;fill-rule:nonzero;fill:rgb(98.799133%,71.398926%,8.999634%);fill-opacity:1;" d="M 41.519531 4.496094 C 41.519531 5.976563 40.320313 7.179688 38.835938 7.179688 C 37.355469 7.179688 36.15625 5.976563 36.15625 4.496094 C 36.15625 3.015625 37.355469 1.816406 38.835938 1.816406 C 40.320313 1.816406 41.519531 3.015625 41.519531 4.496094 "/>
<path style=" stroke:none;fill-rule:nonzero;fill:rgb(98.799133%,71.398926%,8.999634%);fill-opacity:1;" d="M 41.78125 90.023438 C 41.78125 91.507813 40.578125 92.707031 39.097656 92.707031 C 37.617188 92.707031 36.414063 91.507813 36.414063 90.023438 C 36.414063 88.542969 37.617188 87.34375 39.097656 87.34375 C 40.578125 87.34375 41.78125 88.542969 41.78125 90.023438 "/>
<path style=" stroke:none;fill-rule:nonzero;fill:rgb(98.799133%,71.398926%,8.999634%);fill-opacity:1;" d="M 32.5625 75.378906 C 32.5625 76.859375 31.359375 78.058594 29.878906 78.058594 C 28.398438 78.058594 27.199219 76.859375 27.199219 75.378906 C 27.199219 73.898438 28.398438 72.695313 29.878906 72.695313 C 31.359375 72.695313 32.5625 73.898438 32.5625 75.378906 "/>
<path style=" stroke:none;fill-rule:nonzero;fill:rgb(98.799133%,71.398926%,8.999634%);fill-opacity:1;" d="M 23.085938 62.019531 C 23.085938 63.5 21.882813 64.699219 20.402344 64.699219 C 18.921875 64.699219 17.722656 63.5 17.722656 62.019531 C 17.722656 60.539063 18.921875 59.335938 20.402344 59.335938 C 21.882813 59.335938 23.085938 60.539063 23.085938 62.019531 "/>
<path style=" stroke:none;fill-rule:nonzero;fill:rgb(98.799133%,71.398926%,8.999634%);fill-opacity:1;" d="M 16.722656 75.378906 C 16.722656 76.140625 16.105469 76.761719 15.339844 76.761719 C 14.578125 76.761719 13.957031 76.140625 13.957031 75.378906 C 13.957031 74.613281 14.578125 73.996094 15.339844 73.996094 C 16.105469 73.996094 16.722656 74.613281 16.722656 75.378906 "/>
<path style=" stroke:none;fill-rule:nonzero;fill:rgb(98.799133%,71.398926%,8.999634%);fill-opacity:1;" d="M 8.089844 62.019531 C 8.089844 62.78125 7.46875 63.402344 6.707031 63.402344 C 5.941406 63.402344 5.324219 62.78125 5.324219 62.019531 C 5.324219 61.253906 5.941406 60.636719 6.707031 60.636719 C 7.46875 60.636719 8.089844 61.253906 8.089844 62.019531 "/>
<path style=" stroke:none;fill-rule:nonzero;fill:rgb(98.799133%,71.398926%,8.999634%);fill-opacity:1;" d="M 2.765625 47.089844 C 2.765625 47.851563 2.148438 48.472656 1.382813 48.472656 C 0.617188 48.472656 0 47.851563 0 47.089844 C 0 46.324219 0.617188 45.707031 1.382813 45.707031 C 2.148438 45.707031 2.765625 46.324219 2.765625 47.089844 "/>
<path style=" stroke:none;fill-rule:nonzero;fill:rgb(98.799133%,71.398926%,8.999634%);fill-opacity:1;" d="M 7.699219 33.070313 C 7.699219 33.832031 7.082031 34.453125 6.316406 34.453125 C 5.550781 34.453125 4.933594 33.832031 4.933594 33.070313 C 4.933594 32.304688 5.550781 31.6875 6.316406 31.6875 C 7.082031 31.6875 7.699219 32.304688 7.699219 33.070313 "/>
<path style=" stroke:none;fill-rule:nonzero;fill:rgb(98.799133%,71.398926%,8.999634%);fill-opacity:1;" d="M 17.046875 18.53125 C 17.046875 19.292969 16.429688 19.914063 15.664063 19.914063 C 14.898438 19.914063 14.28125 19.292969 14.28125 18.53125 C 14.28125 17.765625 14.898438 17.144531 15.664063 17.144531 C 16.429688 17.144531 17.046875 17.765625 17.046875 18.53125 "/>
<path style=" stroke:none;fill-rule:nonzero;fill:rgb(98.799133%,71.398926%,8.999634%);fill-opacity:1;" d="M 42.429688 62.019531 C 42.429688 63.929688 40.878906 65.480469 38.96875 65.480469 C 37.054688 65.480469 35.507813 63.929688 35.507813 62.019531 C 35.507813 60.105469 37.054688 58.558594 38.96875 58.558594 C 40.878906 58.558594 42.429688 60.105469 42.429688 62.019531 "/>
<path style=" stroke:none;fill-rule:nonzero;fill:rgb(98.799133%,71.398926%,8.999634%);fill-opacity:1;" d="M 32.691406 47.371094 C 32.691406 49.28125 31.144531 50.832031 29.230469 50.832031 C 27.320313 50.832031 25.769531 49.28125 25.769531 47.371094 C 25.769531 45.460938 27.320313 43.910156 29.230469 43.910156 C 31.144531 43.910156 32.691406 45.460938 32.691406 47.371094 "/>
<path style=" stroke:none;fill-rule:nonzero;fill:rgb(98.799133%,71.398926%,8.999634%);fill-opacity:1;" d="M 42.296875 33.046875 C 42.296875 34.957031 40.75 36.507813 38.835938 36.507813 C 36.925781 36.507813 35.378906 34.957031 35.378906 33.046875 C 35.378906 31.136719 36.925781 29.585938 38.835938 29.585938 C 40.75 29.585938 42.296875 31.136719 42.296875 33.046875 "/>
<path style=" stroke:none;fill-rule:nonzero;fill:rgb(98.799133%,71.398926%,8.999634%);fill-opacity:1;" d="M 51.90625 18.390625 C 51.90625 20.304688 50.355469 21.851563 48.445313 21.851563 C 46.53125 21.851563 44.984375 20.304688 44.984375 18.390625 C 44.984375 16.480469 46.53125 14.929688 48.445313 14.929688 C 50.355469 14.929688 51.90625 16.480469 51.90625 18.390625 "/>
<path style=" stroke:none;fill-rule:nonzero;fill:rgb(98.799133%,71.398926%,8.999634%);fill-opacity:1;" d="M 60.992188 4.242188 C 60.992188 6.152344 59.441406 7.703125 57.53125 7.703125 C 55.621094 7.703125 54.070313 6.152344 54.070313 4.242188 C 54.070313 2.332031 55.621094 0.78125 57.53125 0.78125 C 59.441406 0.78125 60.992188 2.332031 60.992188 4.242188 "/>
<path style=" stroke:none;fill-rule:nonzero;fill:rgb(98.799133%,71.398926%,8.999634%);fill-opacity:1;" d="M 52.386719 47.371094 C 52.386719 49.683594 50.511719 51.554688 48.199219 51.554688 C 45.890625 51.554688 44.015625 49.683594 44.015625 47.371094 C 44.015625 45.058594 45.890625 43.1875 48.199219 43.1875 C 50.511719 43.1875 52.386719 45.058594 52.386719 47.371094 "/>
<path style=" stroke:none;fill-rule:nonzero;fill:rgb(98.799133%,71.398926%,8.999634%);fill-opacity:1;" d="M 61.71875 33.046875 C 61.71875 35.355469 59.847656 37.230469 57.535156 37.230469 C 55.222656 37.230469 53.351563 35.355469 53.351563 33.046875 C 53.351563 30.734375 55.222656 28.859375 57.535156 28.859375 C 59.847656 28.859375 61.71875 30.734375 61.71875 33.046875 "/>
<g clip-path="url(#clip2)" clip-rule="nonzero">
<path style=" stroke:none;fill-rule:nonzero;fill:rgb(98.799133%,71.398926%,8.999634%);fill-opacity:1;" d="M 80.550781 90.023438 C 80.550781 92.335938 78.679688 94.210938 76.367188 94.210938 C 74.054688 94.210938 72.183594 92.335938 72.183594 90.023438 C 72.183594 87.714844 74.054688 85.839844 76.367188 85.839844 C 78.679688 85.839844 80.550781 87.714844 80.550781 90.023438 "/>
</g>
<path style=" stroke:none;fill-rule:nonzero;fill:rgb(98.799133%,71.398926%,8.999634%);fill-opacity:1;" d="M 50.324219 48.460938 L 112.246094 48.460938 L 112.246094 45.894531 L 50.324219 45.894531 Z M 50.324219 48.460938 "/>
<path style=" stroke:none;fill-rule:nonzero;fill:rgb(98.799133%,71.398926%,8.999634%);fill-opacity:1;" d="M 60.632813 34.328125 L 80.105469 34.328125 L 80.105469 31.761719 L 60.632813 31.761719 Z M 60.632813 34.328125 "/>
<path style=" stroke:none;fill-rule:nonzero;fill:rgb(98.799133%,71.398926%,8.999634%);fill-opacity:1;" d="M 88.46875 48.316406 L 77.753906 31.761719 L 80.742188 31.761719 L 91.460938 48.316406 Z M 88.46875 48.316406 "/>
<path style=" stroke:none;fill-rule:nonzero;fill:rgb(98.799133%,71.398926%,8.999634%);fill-opacity:1;" d="M 79.632813 63.300781 L 89.566406 63.300781 L 89.566406 60.734375 L 79.632813 60.734375 Z M 79.632813 63.300781 "/>
<path style=" stroke:none;fill-rule:nonzero;fill:rgb(98.799133%,71.398926%,8.999634%);fill-opacity:1;" d="M 87.203125 63.300781 L 96.089844 48.316406 L 98.65625 48.316406 L 89.765625 63.300781 Z M 87.203125 63.300781 "/>
</g>
</svg>
