<svg id="Capa_1" data-name="Capa 1" xmlns="http://www.w3.org/2000/svg" viewBox="0 0 239.97 234.68"><defs><style>.cls-1{fill:#fff;}</style></defs><path class="cls-1" d="M23.28,1.75Z" transform="translate(-6.06 -1.25)"/><polyline class="cls-1" points="230.65 105.07 230.65 105.07 20.55 2.69"/><polygon class="cls-1" points="230.87 104.62 230.72 104.92 230.65 105.07 230.5 105.37 230.43 105.52 229.2 104.92 227.37 104.03 226.13 103.42 23.51 4.69 22.27 4.09 20.33 3.14 20.55 2.69 20.77 2.25 20.77 2.24 229.57 103.98 230.87 104.62"/><rect class="cls-1" x="22.31" y="1.33" width="1" height="1.51" transform="translate(4.92 20.45) rotate(-64.12)"/><line class="cls-1" x1="230.55" y1="130.88" x2="18.94" y2="232.91"/><polygon class="cls-1" points="230.77 131.33 19.16 233.36 18.94 232.91 18.72 232.46 21.93 230.91 23.25 230.28 226.47 132.29 227.84 131.63 230.33 130.43 230.55 130.88 230.77 131.33"/><line class="cls-1" x1="20.65" y1="135.07" x2="0.5" y2="219.71"/><polygon class="cls-1" points="21.13 135.19 20.59 137.44 20.4 138.26 2.47 213.59 2.13 215.06 0.99 219.83 0.6 219.74 0.5 219.71 0.11 219.62 0.02 219.6 20.16 134.95 20.23 134.97 20.65 135.07 20.73 135.09 21.13 135.19"/><path class="cls-1" d="M8.22,20.92l.34,1.45a13.26,13.26,0,0,1-2.08-4.43l-.15-.64-.25-1,.08,0,.5-.12.39-.09Z" transform="translate(-6.06 -1.25)"/><path class="cls-1" d="M27.19,100.15l-.11,0-.49.12-.37.09L26,99.48a.49.49,0,0,1,0-.12,3.75,3.75,0,0,1,.56-1.82l.18.76L27,99.41Z" transform="translate(-6.06 -1.25)"/><line class="cls-1" x1="23.77" y1="101.61" x2="111.5" y2="111.01"/><polygon class="cls-1" points="111.5 111.01 111.56 110.51 26.04 101.36 25.22 101.27 23.82 101.12 23.77 101.61 23.71 102.11 108.46 111.18 109.54 111.3 109.55 111.3 111.5 111.01"/><line class="cls-1" x1="111.5" y1="124.72" x2="23.77" y2="133.11"/><polygon class="cls-1" points="111.5 124.72 111.55 125.22 111.5 125.22 26.08 133.39 25.27 133.47 23.81 133.61 23.76 133.11 23.72 132.62 23.77 132.61 23.81 132.61 108.39 124.51 109.46 124.41 111.5 124.72"/><path class="cls-1" d="M238.64,131.15a11.51,11.51,0,0,1-2,1Z" transform="translate(-6.06 -1.25)"/><path class="cls-1" d="M26.56,3.91l-3.07-1.5A12.5,12.5,0,0,1,26.56,3.91Z" transform="translate(-6.06 -1.25)"/><path class="cls-1" d="M26.34,4.36l-3.07-1.5.38-.92A12.59,12.59,0,0,1,26.84,3.5Z" transform="translate(-6.06 -1.25)"/><path class="cls-1" d="M7.05,16.05l1.17,4.87a12.59,12.59,0,0,1-1.56-4.78Z" transform="translate(-6.06 -1.25)"/><path class="cls-1" d="M28.33,5.34l-1.94-1,.22-.45A12.83,12.83,0,0,1,28.33,5.34Z" transform="translate(-6.06 -1.25)"/><path class="cls-1" d="M28.58,4.9a12.49,12.49,0,0,0-1.69-1.37l-.06,0L23.65,1.94a13.16,13.16,0,0,0-4.23-.69A13.37,13.37,0,0,0,6.06,14.61a12.83,12.83,0,0,0,.1,1.65c0,.35.1.7.17,1l.15.64a13.26,13.26,0,0,0,2.08,4.43l-.34-1.45L7.05,16.05l-.39.09a11,11,0,0,1-.1-1.53A12.86,12.86,0,0,1,23.49,2.41l3.07,1.5.05,0-.22.45,1.94,1,1.24.6A9.74,9.74,0,0,0,28.58,4.9Z" transform="translate(-6.06 -1.25)"/><path class="cls-1" d="M27,99.41l.18.74-.11,0-.49.12a3.16,3.16,0,0,1-.09-.76.49.49,0,0,1,0-.12,3.2,3.2,0,0,1,.24-1.12Z" transform="translate(-6.06 -1.25)"/><path class="cls-1" d="M31.28,102.52a3.22,3.22,0,0,1-1.45.34l.05-.49Z" transform="translate(-6.06 -1.25)"/><path class="cls-1" d="M31.28,102.52l-1.4-.15-.05.49a3.32,3.32,0,0,1-3.24-2.56l.49-.12a2.74,2.74,0,0,1-.08-.64v-.13l-.26-1.11-.18-.76A3.75,3.75,0,0,0,26,99.36a.49.49,0,0,0,0,.12v.06a3.83,3.83,0,0,0,3.77,3.82h.06a3.89,3.89,0,0,0,1.56-.33,4.57,4.57,0,0,0,.71-.42Z" transform="translate(-6.06 -1.25)"/><path class="cls-1" d="M117.56,112.26l-2,.29m2,13.42a6.9,6.9,0,0,1-2-.31" transform="translate(-6.06 -1.25)"/><path class="cls-1" d="M115.52,125.66l-1.07.1a6.25,6.25,0,0,0,1,.41,7.1,7.1,0,0,0,2.07.3h0a7.36,7.36,0,0,0,0-14.71h-.06a6.75,6.75,0,0,0-2,.29h0a5.3,5.3,0,0,0-1,.38l1.08.12h0l2-.29a6.86,6.86,0,1,1,0,13.71Z" transform="translate(-6.06 -1.25)"/><path class="cls-1" d="M26.79,136.34l.4.1-.54,2.25a3.32,3.32,0,0,1-.15-1A3.21,3.21,0,0,1,26.79,136.34Z" transform="translate(-6.06 -1.25)"/><path class="cls-1" d="M31.33,134.72l-1.46.14-.05-.5h0A3.29,3.29,0,0,1,31.33,134.72Z" transform="translate(-6.06 -1.25)"/><path class="cls-1" d="M31.42,134.21a3.82,3.82,0,0,0-1.55-.35h0A3.82,3.82,0,0,0,26,137.69a3.81,3.81,0,0,0,.14,1,4.31,4.31,0,0,0,.32.8l.19-.82.54-2.25-.4-.1a3.31,3.31,0,0,1,3-2l.05.5,1.46-.14.81-.08A3.71,3.71,0,0,0,31.42,134.21Z" transform="translate(-6.06 -1.25)"/><path class="cls-1" d="M245.53,119.11a14,14,0,0,1-6.82,12l-.07,0-2,1a12.93,12.93,0,0,1-2.71.75l2.49-1.2,0,0,2-1a13.45,13.45,0,0,0-1.86-24.08l-.07.15-1.23-.6-1.83-.89a13.27,13.27,0,0,1,2,.42,10.64,10.64,0,0,1,1.34.47A13.93,13.93,0,0,1,245.53,119.11Z" transform="translate(-6.06 -1.25)"/><path class="cls-1" d="M235.63,105.23h0a13.68,13.68,0,0,0-2-.43,10.41,10.41,0,0,0-1.37-.12l1.24.61,1.83.89h0a11,11,0,0,1,1.26.44,13.45,13.45,0,0,1,1.86,24.08l-2,1,0,0-2.49,1.2-1.37.66a12.86,12.86,0,0,0,1.52-.18,13.52,13.52,0,0,0,2.78-.78l2-1,.1,0a14.47,14.47,0,0,0-3.34-26.32Z" transform="translate(-6.06 -1.25)"/><path class="cls-1" d="M6.66,221a12.47,12.47,0,0,1,1.53-4.68l-1.14,4.77Z" transform="translate(-6.06 -1.25)"/><path class="cls-1" d="M28,232.16a12.91,12.91,0,0,1-3,2l-.22-.45Z" transform="translate(-6.06 -1.25)"/><path class="cls-1" d="M28,232.16l-3.21,1.55.22.45A12.87,12.87,0,0,1,6.56,222.57a11.76,11.76,0,0,1,.1-1.58l.39.09,1.14-4.77.34-1.47a12.75,12.75,0,0,0-.83,1.32,13.05,13.05,0,0,0-1.53,4.71,13.61,13.61,0,0,0-.11,1.7,13.37,13.37,0,0,0,19.16,12,12.66,12.66,0,0,0,3-2,12.11,12.11,0,0,0,1.08-1.07Z" transform="translate(-6.06 -1.25)"/><path class="cls-1" d="M245,119.11a13.37,13.37,0,0,1-6.61,11.59l-2,1,0,0-2.49,1.2-1.37.66-203.22,98-1.32.63-3.21,1.55.22.45A12.87,12.87,0,0,1,6.56,222.57a11.76,11.76,0,0,1,.1-1.58l.39.09,1.14-4.77.34-1.47,17.93-75.33.19-.82.54-2.25-.4-.1a3.31,3.31,0,0,1,3-2l.05.5,1.46-.14.81-.08,85.42-8.17h0a7.36,7.36,0,0,0,0-14.71L32.1,102.61l-.82-.09-1.4-.15-.05.49a3.32,3.32,0,0,1-3.24-2.56l.49-.12.11,0L27,99.41l-.26-1.11-.18-.76A3.75,3.75,0,0,0,26,99.36a.49.49,0,0,0,0,.12L6.48,17.94a13.26,13.26,0,0,0,2.08,4.43l-.34-1.45L7.05,16.05l-.39.09a11,11,0,0,1-.1-1.53A12.86,12.86,0,0,1,23.49,2.41l3.07,1.5.05,0-.22.45,1.94,1,1.24.6,202.62,98.73,1.24.61,1.83.89,1.23.6.07-.15A13.5,13.5,0,0,1,245,119.11Z" transform="translate(-6.06 -1.25)"/></svg>